<svg width="14" height="12" viewBox="0 0 14 12" fill="none" xmlns="http://www.w3.org/2000/svg">
<path id="return.right" d="M9.55515 12C9.72958 12 9.9234 11.9233 10.0655 11.7891L13.7739 8.17252C13.9225 8.03195 14 7.84026 14 7.65495C14 7.46326 13.9225 7.27157 13.7739 7.13099L10.0655 3.52077C9.9234 3.38019 9.72958 3.30351 9.55515 3.30351C9.13521 3.30351 8.85741 3.58466 8.85741 3.98083C8.85741 4.19169 8.94139 4.34505 9.06414 4.46645L10.731 6.07029L11.868 7.02236L10.3692 6.95208H2.3258C1.67974 6.95208 1.39548 6.67732 1.39548 6.01917V2.3131C1.39548 1.66773 1.67328 1.39297 2.3258 1.39297H5.88556C6.31195 1.39297 6.60268 1.07987 6.60268 0.696486C6.60268 0.313099 6.30549 0 5.88556 0H2.29995C0.684818 0 0 0.677316 0 2.27476V6.0639C0 7.62939 0.684818 8.35144 2.29995 8.35144H10.3692L11.868 8.28754L10.731 9.23323L9.06414 10.8371C8.94139 10.9649 8.85741 11.1182 8.85741 11.3227C8.85741 11.7188 9.13521 12 9.55515 12Z" fill="#464752"/>
</svg>
