<svg width="12" height="14" viewBox="0 0 12 14" fill="none" xmlns="http://www.w3.org/2000/svg">
<g id="Layer_1" clip-path="url(#clip0_2555_8784)">
<path id="Vector" d="M3.0379 5.42188H0.468705C0.209846 5.42188 0 5.63443 0 5.89663V13.5279C0 13.7901 0.209846 14.0026 0.468705 14.0026H3.0379C3.29676 14.0026 3.50661 13.7901 3.50661 13.5279V5.89663C3.50661 5.63443 3.29676 5.42188 3.0379 5.42188Z" fill="#43AB38"/>
<path id="Vector_2" d="M3.86834 5.74666V13.1962C3.86834 13.1962 4.02342 14.0051 6.17599 14.0051H10.1501C10.6767 14.0051 11.1026 13.5725 11.1026 13.0403V12.984C11.1026 12.4507 10.6756 12.0193 10.1501 12.0193H8.79611C8.74056 12.0193 8.69427 11.9736 8.69427 11.9161V11.9032C8.69427 11.847 8.7394 11.8001 8.79611 11.8001H10.6189C11.1454 11.8001 11.5713 11.3675 11.5713 10.8353V10.8084C11.5713 10.275 11.1443 9.84362 10.6189 9.84362H9.00442C8.94887 9.84362 8.90258 9.7979 8.90258 9.74046V9.73343C8.90258 9.67716 8.94772 9.63027 9.00442 9.63027H11.0482C11.5748 9.63027 12.0007 9.19772 12.0007 8.66553V8.57995C12.0007 8.04659 11.5736 7.6152 11.0482 7.6152H9.34235C9.2868 7.6152 9.24051 7.56949 9.24051 7.51205C9.24051 7.45578 9.28565 7.40889 9.34235 7.40889H10.8005C11.3271 7.40889 11.753 6.97633 11.753 6.44414C11.753 5.91077 11.326 5.47939 10.8005 5.47939H8.20473C8.01609 5.47939 7.89573 5.27542 7.986 5.10896C8.52299 4.11843 9.70459 1.40119 7.35875 0.0929724C7.2407 0.0273272 7.10414 -0.00432313 6.97105 0.0120882C6.78589 0.0343606 6.56484 0.144551 6.49309 0.52201C6.49309 0.52201 6.3762 1.02373 6.40166 2.02482C6.40166 2.02482 6.5822 4.0141 4.09749 5.361C3.9563 5.43719 3.86719 5.58724 3.86719 5.75018L3.86834 5.74666Z" fill="#43AB38"/>
</g>
<defs>
<clipPath id="clip0_2555_8784">
<rect width="12" height="14" fill="white"/>
</clipPath>
</defs>
</svg>
