<svg width="23" height="22" viewBox="0 0 23 22" fill="none" xmlns="http://www.w3.org/2000/svg">
<path id="Star 10" d="M11.0245 0.463528C11.1741 0.00287247 11.8259 0.00286996 11.9755 0.463525L14.3064 7.63729C14.3734 7.8433 14.5653 7.98278 14.782 7.98278H22.3249C22.8093 7.98278 23.0106 8.60259 22.6188 8.88729L16.5164 13.3209C16.3412 13.4482 16.2678 13.6739 16.3348 13.8799L18.6657 21.0537C18.8154 21.5143 18.2881 21.8974 17.8963 21.6127L11.7939 17.1791C11.6186 17.0518 11.3814 17.0518 11.2061 17.1791L5.10374 21.6127C4.71189 21.8974 4.18464 21.5143 4.33432 21.0537L6.66522 13.8799C6.73215 13.6739 6.65882 13.4482 6.48358 13.3209L0.381216 8.88729C-0.0106409 8.60259 0.190746 7.98278 0.675107 7.98278H8.21805C8.43466 7.98278 8.62664 7.8433 8.69357 7.63729L11.0245 0.463528Z" fill="#D9D9D9"/>
</svg>
