<svg width="15" height="16" viewBox="0 0 15 16" fill="none" xmlns="http://www.w3.org/2000/svg">
<g id="Group 1470595464">
<g id="Union">
<path d="M14.3857 6.49023C14.3857 4.28714 14.3857 3.18559 13.8217 2.3943C13.5776 2.05174 13.2639 1.75762 12.8985 1.52873C12.0544 1 10.8794 1 8.52946 1H6.85625C4.50628 1 3.3313 1 2.48725 1.52873C2.12186 1.75762 1.80813 2.05174 1.56397 2.3943C1 3.18559 1 4.28714 1 6.49023C1 8.69333 1 9.79487 1.56397 10.5862C1.80813 10.9287 2.12186 11.2229 2.48725 11.4517C3.3313 11.9805 4.50628 11.9805 6.85625 11.9805H8.52946C10.8794 11.9805 12.0544 11.9805 12.8985 11.4517C13.2639 11.2229 13.5776 10.9287 13.8217 10.5862C14.3857 9.79487 14.3857 8.69333 14.3857 6.49023Z" fill="#AAAAAA"/>
<path d="M12.8985 11.4517L13.1841 11.9077L12.8985 11.4517ZM13.8217 10.5862L13.3836 10.2739L13.8217 10.5862ZM1.56397 10.5862L2.00207 10.2739L1.56397 10.5862ZM2.48725 11.4517L2.20166 11.9077L2.48725 11.4517ZM2.48725 1.52873L2.20166 1.07281V1.07281L2.48725 1.52873ZM1.56397 2.3943L2.00207 2.70654L1.56397 2.3943ZM12.8985 1.52873L13.1841 1.07281V1.07281L12.8985 1.52873ZM13.8217 2.3943L13.3836 2.70654L13.8217 2.3943ZM8.52946 0.462016H6.85625V1.53798H8.52946V0.462016ZM6.85625 12.5185H8.52946V11.4425H6.85625V12.5185ZM8.52946 12.5185C9.69394 12.5185 10.6053 12.519 11.3298 12.4499C12.0616 12.3801 12.6611 12.2353 13.1841 11.9077L12.6129 10.9958C12.2918 11.1969 11.8818 11.3164 11.2276 11.3788C10.5661 11.4419 9.71496 11.4425 8.52946 11.4425V12.5185ZM13.8477 6.49023C13.8477 7.60371 13.847 8.39565 13.7804 9.00959C13.7149 9.61267 13.5909 9.98315 13.3836 10.2739L14.2598 10.8984C14.6166 10.3979 14.7745 9.82195 14.8501 9.12566C14.9244 8.44023 14.9237 7.57985 14.9237 6.49023H13.8477ZM13.1841 11.9077C13.6077 11.6423 13.9737 11.2998 14.2598 10.8984L13.3836 10.2739C13.1815 10.5576 12.92 10.8034 12.6129 10.9958L13.1841 11.9077ZM0.462016 6.49023C0.462016 7.57985 0.461277 8.44023 0.535652 9.12566C0.611206 9.82195 0.769144 10.3979 1.12588 10.8984L2.00207 10.2739C1.79483 9.98315 1.67078 9.61267 1.60534 9.00959C1.53872 8.39565 1.53798 7.60371 1.53798 6.49023H0.462016ZM6.85625 11.4425C5.67076 11.4425 4.81962 11.4419 4.15811 11.3788C3.50396 11.3164 3.09391 11.1969 2.77285 10.9958L2.20166 11.9077C2.72464 12.2353 3.32411 12.3801 4.05596 12.4499C4.78044 12.519 5.69177 12.5185 6.85625 12.5185V11.4425ZM1.12588 10.8984C1.41199 11.2998 1.77803 11.6423 2.20166 11.9077L2.77285 10.9958C2.46568 10.8034 2.20426 10.5576 2.00207 10.2739L1.12588 10.8984ZM6.85625 0.462016C5.69177 0.462016 4.78044 0.461444 4.05596 0.530537C3.32411 0.600332 2.72464 0.745203 2.20166 1.07281L2.77285 1.98465C3.09391 1.78352 3.50396 1.66403 4.15811 1.60164C4.81962 1.53856 5.67076 1.53798 6.85625 1.53798V0.462016ZM1.53798 6.49023C1.53798 5.37676 1.53872 4.58482 1.60534 3.97088C1.67078 3.3678 1.79483 2.99732 2.00207 2.70654L1.12588 2.08206C0.769144 2.58257 0.611206 3.15852 0.535652 3.85481C0.461277 4.54023 0.462016 5.40062 0.462016 6.49023H1.53798ZM2.20166 1.07281C1.77803 1.33818 1.41199 1.68062 1.12588 2.08206L2.00207 2.70654C2.20426 2.42286 2.46568 2.17706 2.77285 1.98465L2.20166 1.07281ZM8.52946 1.53798C9.71496 1.53798 10.5661 1.53856 11.2276 1.60164C11.8818 1.66403 12.2918 1.78352 12.6129 1.98465L13.1841 1.07281C12.6611 0.745203 12.0616 0.600332 11.3298 0.530537C10.6053 0.461444 9.69394 0.462016 8.52946 0.462016V1.53798ZM14.9237 6.49023C14.9237 5.40062 14.9244 4.54023 14.8501 3.85481C14.7745 3.15852 14.6166 2.58257 14.2598 2.08206L13.3836 2.70654C13.5909 2.99732 13.7149 3.3678 13.7804 3.97088C13.847 4.58482 13.8477 5.37676 13.8477 6.49023H14.9237ZM12.6129 1.98465C12.92 2.17706 13.1815 2.42286 13.3836 2.70654L14.2598 2.08206C13.9737 1.68062 13.6077 1.33818 13.1841 1.07281L12.6129 1.98465Z" fill="#AAAAAA"/>
</g>
<path id="Polygon 5" d="M10.5444 14.9404C10.3704 15.3421 9.80067 15.3421 9.6267 14.9404L8.43916 12.1979C8.2962 11.8677 8.53823 11.4992 8.89799 11.4992L11.2731 11.4992C11.6328 11.4992 11.8749 11.8677 11.7319 12.1979L10.5444 14.9404Z" fill="#AAAAAA"/>
<path id="Line 96" d="M3.50781 4.35156H11.8739" stroke="white" stroke-linecap="round"/>
<path id="Line 97" d="M3.50781 7.6875H9.36406" stroke="white" stroke-linecap="round"/>
</g>
</svg>
