<svg width="12" height="15" viewBox="0 0 12 15" fill="none" xmlns="http://www.w3.org/2000/svg">
<g id="Layer_1" clip-path="url(#clip0_2555_8789)">
<path id="Vector" d="M8.9621 9.63281L11.5313 9.63281C11.7902 9.63281 12 9.42259 12 9.16327L12 1.61589C12 1.35657 11.7902 1.14635 11.5313 1.14635L8.9621 1.14635C8.70324 1.14635 8.49339 1.35657 8.49339 1.61589L8.49339 9.16327C8.49339 9.42259 8.70324 9.63281 8.9621 9.63281Z" fill="#AAAAAA"/>
<path id="Vector_2" d="M8.13947 9.32422L8.13947 1.95653C8.13947 1.95653 7.98439 1.15657 5.83182 1.15657L1.85767 1.15657C1.3311 1.15657 0.905212 1.58438 0.905212 2.11072L0.905212 2.16637C0.905212 2.69388 1.33225 3.12052 1.85767 3.12052L3.2117 3.12052C3.26725 3.12052 3.31354 3.16573 3.31354 3.22254L3.31354 3.23529C3.31354 3.29094 3.26841 3.33732 3.2117 3.33732L1.38896 3.33732C0.862392 3.33732 0.436507 3.76512 0.436507 4.29146L0.436507 4.31813C0.436507 4.84564 0.86355 5.27228 1.38896 5.27228L3.00339 5.27228C3.05894 5.27228 3.10523 5.31749 3.10523 5.3743L3.10523 5.38126C3.10523 5.43691 3.0601 5.48328 3.00339 5.48328L0.959605 5.48328C0.433036 5.48328 0.00715081 5.91108 0.00715086 6.43743L0.00715086 6.52206C0.00715091 7.04957 0.434193 7.47621 0.959606 7.47621L2.66546 7.47621C2.72101 7.47621 2.7673 7.52142 2.7673 7.57823C2.7673 7.63388 2.72217 7.68025 2.66546 7.68025L1.20727 7.68025C0.680697 7.68025 0.254812 8.10806 0.254812 8.6344C0.254812 9.16191 0.681855 9.58855 1.20727 9.58855L3.80308 9.58855C3.99172 9.58855 4.11208 9.79028 4.02181 9.9549C3.48482 10.9346 2.30323 13.6219 4.64906 14.9158C4.76711 14.9807 4.90367 15.012 5.03676 14.9958C5.22193 14.9737 5.44297 14.8648 5.51472 14.4915C5.51472 14.4915 5.63161 13.9952 5.60615 13.0052C5.60615 13.0052 5.42561 11.0377 7.91032 9.70564C8.05151 9.63029 8.14062 9.48189 8.14062 9.32074L8.13947 9.32422Z" fill="#AAAAAA"/>
</g>
<defs>
<clipPath id="clip0_2555_8789">
<rect width="12" height="15" fill="white" transform="translate(12 15) rotate(180)"/>
</clipPath>
</defs>
</svg>
